<svg width="54" height="51" viewBox="0 0 54 51" fill="none" xmlns="http://www.w3.org/2000/svg">
<g id="Vector">
<path id="Vector_2" d="M0 43.5436H1.11777V46.5688H5.02101V43.5436H6.13335V50.9989H5.02101V47.6699H1.11777V50.9989H0V43.5436ZM6.69685 45.5676H7.81462V49.0228C7.81462 49.2676 7.89922 49.4753 8.06898 49.6466C8.23819 49.8179 8.44156 49.9037 8.67803 49.9037H10.6218V45.5681H11.7396V49.8984C11.7396 50.2022 11.63 50.4621 11.4114 50.6768C11.1923 50.8916 10.926 50.9995 10.6115 50.9995H8.67857C8.31466 50.9995 7.98274 50.9114 7.68283 50.7348C7.38291 50.5582 7.1432 50.3214 6.96531 50.0245C6.78688 49.7277 6.69794 49.3991 6.69794 49.0389V45.5681L6.69685 45.5676ZM12.1967 46.674C12.1967 46.3702 12.3063 46.1098 12.5249 45.8929C12.744 45.676 13.0086 45.5681 13.3194 45.5681H14.9931C15.4448 45.5681 15.8158 45.7077 16.1054 45.9874C16.388 45.7077 16.7584 45.5681 17.2178 45.5681H18.0437C18.4077 45.5681 18.7396 45.6567 19.0395 45.8328C19.3394 46.0094 19.5786 46.2451 19.757 46.5404C19.9354 46.8356 20.0244 47.1636 20.0244 47.5233V50.9995H18.912V47.5394C18.912 47.2984 18.8274 47.0928 18.6577 46.9237C18.4885 46.754 18.2835 46.6692 18.0432 46.6692H17.2172C17.0616 46.6692 16.9292 46.7175 16.8202 46.8136C16.7107 46.9097 16.6559 47.0262 16.6559 47.162V50.9995H15.5381V47.162C15.5381 47.0257 15.485 46.9097 15.3792 46.8136C15.2735 46.7175 15.1444 46.6692 14.9925 46.6692H13.3134V50.9995H12.1957V46.674H12.1967ZM20.3552 44.0891C20.3552 43.9001 20.4225 43.7396 20.5564 43.607C20.6904 43.4744 20.8531 43.4078 21.0434 43.4078C21.2338 43.4078 21.3965 43.4744 21.5305 43.607C21.6644 43.7401 21.7317 43.9007 21.7317 44.0891C21.7317 44.2775 21.6644 44.4386 21.5305 44.5712C21.3965 44.7043 21.2338 44.7704 21.0434 44.7704C20.8531 44.7704 20.6904 44.7038 20.5564 44.5712C20.4225 44.4386 20.3552 44.2775 20.3552 44.0891ZM20.4821 45.5676H21.6048V50.9989H20.4821V45.5676ZM22.0625 47.0879C22.0625 46.8082 22.1341 46.5532 22.2773 46.3224C22.4205 46.0915 22.6108 45.9085 22.8494 45.7721C23.0881 45.6358 23.3517 45.5676 23.6413 45.5676H24.8648V46.6687H23.6413C23.5144 46.6687 23.4053 46.7116 23.3153 46.797C23.2253 46.8829 23.1803 46.9865 23.1803 47.1089V50.9989H22.0625V47.0879ZM26.9848 49.893H28.2929V50.9995H26.9848C26.6209 50.9995 26.289 50.9114 25.9891 50.7348C25.6892 50.5582 25.4494 50.3214 25.2716 50.0245C25.0931 49.7277 25.0042 49.3991 25.0042 49.0389V47.5185C25.0042 47.1588 25.0931 46.8319 25.2716 46.5382C25.45 46.2446 25.6892 46.0094 25.9891 45.8333C26.289 45.6567 26.6209 45.5687 26.9848 45.5687H30.0463V51H28.9286V46.6746H26.9848M26.1219 47.5282V49.0276V47.5282ZM34.6481 43.5436H36.0409L38.7368 50.9989H37.5453L36.7242 48.7549H34.6215L35.024 47.6538H36.3218L35.3472 44.9905L33.1442 50.9984H31.9527L34.6487 43.5431L34.6481 43.5436ZM39.1506 43.5436H40.2684V50.9989H39.1506V43.5436ZM42.6536 49.893H43.9618V50.9995H42.6536C42.2897 50.9995 41.9578 50.9114 41.6579 50.7348C41.358 50.5582 41.1183 50.3214 40.9404 50.0245C40.7619 49.7277 40.673 49.3991 40.673 49.0389V47.5185C40.673 47.1588 40.7619 46.8319 40.9404 46.5382C41.1188 46.2446 41.358 46.0094 41.6579 45.8333C41.9578 45.6567 42.2897 45.5687 42.6536 45.5687H45.7152V51H44.5974V46.6746H42.6536M41.7902 47.5282V49.0276V47.5282ZM46.1724 46.674C46.1724 46.3702 46.2819 46.1098 46.5005 45.8929C46.7196 45.676 46.9843 45.5681 47.295 45.5681H48.9687C49.4205 45.5681 49.7914 45.7077 50.081 45.9874C50.3636 45.7077 50.734 45.5681 51.1934 45.5681H52.0194C52.3833 45.5681 52.7152 45.6567 53.0151 45.8328C53.315 46.0094 53.5542 46.2451 53.7326 46.5404C53.9111 46.8356 54 47.1636 54 47.5233V50.9995H52.8877V47.5394C52.8877 47.2984 52.803 47.0928 52.6333 46.9237C52.4641 46.754 52.2591 46.6692 52.0188 46.6692H51.1928C51.0372 46.6692 50.9049 46.7175 50.7958 46.8136C50.6863 46.9097 50.6315 47.0262 50.6315 47.162V50.9995H49.5137V47.162C49.5137 47.0257 49.4606 46.9097 49.3548 46.8136C49.2491 46.7175 49.12 46.6692 48.9681 46.6692H47.289V50.9995H46.1713V46.674H46.1724ZM19.5547 34.8514L19.5026 18.6428H28.9193L30.9076 21.0248L22.0251 20.9733L22.1298 36.5747C22.1298 36.8818 21.3434 37.3113 20.9979 37.2855H10.0865L10.1125 0.0257691H13.8791L13.9312 34.8514H19.5553H19.5547ZM17.0697 0L43.4368 37.3113H49.5316L23.164 0H17.0692H17.0697Z" fill="#E6D62D"/>
</g>
</svg>
