<svg width="33" height="33" viewBox="0 0 33 33" fill="none" xmlns="http://www.w3.org/2000/svg">
<g id="cib:basecamp">
<path id="Vector" d="M16.5 2.75049C7.61578 2.75049 0.66 14.052 0 23.5951C2.78747 28.4348 9.50709 30.2498 16.5 30.2498C23.4929 30.2498 30.2187 28.4348 33 23.5951C32.34 14.0509 25.3842 2.75049 16.5 2.75049ZM16.7032 28.0471C3.58669 28.0471 2.33063 22.5041 2.33063 22.5041L2.57812 21.1624C2.57812 21.1624 6.1875 13.3631 8.45316 13.3631C10.726 13.3631 11.6707 16.5806 13.53 16.5806C15.3873 16.5806 19.405 9.44743 20.8508 9.44743C22.2905 9.44743 24.7283 12.1276 26.7218 14.6037C28.7152 17.0797 30.6787 21.3233 30.6787 21.3233L30.6694 21.3656L30.8725 22.5856C30.8725 22.5856 29.8207 28.0471 16.7032 28.0471Z" fill="#292929"/>
</g>
</svg>
